<svg width="21" height="39" viewBox="0 0 21 39" fill="none" xmlns="http://www.w3.org/2000/svg">
<path fill-rule="evenodd" clip-rule="evenodd" d="M4.10076 21.0456C4.39101 22.0614 5.35503 23.204 7.45029 24.683L6.29693 26.317C4.14219 24.796 2.66872 23.3135 2.17771 21.595C1.66509 19.8008 2.29778 18.0578 3.55088 16.2441C4.8011 14.4345 6.80729 12.3555 9.40841 9.80887C10.3144 8.92189 11.2946 7.9763 12.3488 6.95937C13.8905 5.47212 15.5905 3.83228 17.4476 1.99999L10.3736 1.99999L10.3736 -1.2362e-05L20.8736 -1.14441e-05L20.8736 9.49999L18.8736 9.49999L18.8736 3.40258C16.9951 5.25608 15.269 6.92132 13.7146 8.42087C12.6653 9.43308 11.6943 10.3698 10.8076 11.238C8.18993 13.8007 6.32112 15.7529 5.19634 17.3809C4.07444 19.0047 3.83213 20.1054 4.10076 21.0456Z" fill="white"/>
<path fill-rule="evenodd" clip-rule="evenodd" d="M16.7729 17.4544C16.4826 16.4386 15.5186 15.296 13.4233 13.817L14.5767 12.183C16.7314 13.704 18.2049 15.1865 18.6959 16.905C19.2085 18.6992 18.5758 20.4422 17.3227 22.2559C16.0725 24.0655 14.0663 26.1445 11.4652 28.6911C10.5592 29.5781 9.57901 30.5237 8.52481 31.5406C6.98308 33.0279 5.28316 34.6677 3.42599 36.5H10.5V38.5H0V29H2V35.0974C3.87847 33.2439 5.60463 31.5787 7.15904 30.0791C8.20829 29.0669 9.17929 28.1302 10.066 27.262C12.6837 24.6992 14.5525 22.7471 15.6773 21.1191C16.7992 19.4953 17.0415 18.3946 16.7729 17.4544Z" fill="white"/>
</svg>
