<svg width="81" height="81" viewBox="0 0 81 81" fill="none" xmlns="http://www.w3.org/2000/svg">
<path d="M76.9426 39.0464C76.2137 20.0208 60.9189 4.72595 41.8932 3.99707L42.0463 0C63.1609 0.808908 80.1307 17.7787 80.9396 38.8933L76.9426 39.0464Z" fill="#77B910"/>
<path d="M3.99701 41.8933C4.72589 60.9189 20.0207 76.2137 39.0463 76.9426L38.8932 80.9397C17.7786 80.1308 0.808847 63.161 -6.10352e-05 42.0464L3.99701 41.8933Z" fill="#0960A8"/>
<path d="M41.8932 76.9427C60.9188 76.2138 76.2136 60.919 76.9426 41.8934L80.9396 42.0465C80.1307 63.161 63.1609 80.1308 42.0463 80.9397L41.8932 76.9427Z" fill="#D92211"/>
<path d="M39.0464 3.99704C20.0208 4.72592 4.72599 20.0207 3.99708 39.0463L7.64278e-06 38.8932C0.808954 17.7787 17.7788 0.808878 38.8933 -2.67163e-05L39.0464 3.99704Z" fill="#FECC28"/>
</svg>
