<svg width="99" height="117" viewBox="0 0 99 117" fill="none" xmlns="http://www.w3.org/2000/svg">
<path fill-rule="evenodd" clip-rule="evenodd" d="M8 66.5C6.61929 66.5 5.5 67.6193 5.5 69V109C5.5 110.381 6.61929 111.5 8 111.5H28C29.3807 111.5 30.5 110.381 30.5 109V78.5H35.5V109C35.5 113.142 32.1421 116.5 28 116.5H8C3.85787 116.5 0.5 113.142 0.5 109V69C0.5 64.8579 3.85786 61.5 8 61.5H18V66.5H8Z" fill="#77B910"/>
<path fill-rule="evenodd" clip-rule="evenodd" d="M21.5 29C21.5 24.8579 24.8579 21.5 29 21.5H49C53.1421 21.5 56.5 24.8579 56.5 29V41.5H51.5V29C51.5 27.6193 50.3807 26.5 49 26.5H29C27.6193 26.5 26.5 27.6193 26.5 29V69C26.5 70.3807 27.6193 71.5 29 71.5H39V76.5H29C24.8579 76.5 21.5 73.1421 21.5 69V29Z" fill="#0960A8"/>
<path fill-rule="evenodd" clip-rule="evenodd" d="M48 49.5C46.6193 49.5 45.5 50.6193 45.5 52V92C45.5 93.3807 46.6193 94.5 48 94.5H68C69.3807 94.5 70.5 93.3807 70.5 92V59.5H75.5V92C75.5 96.1421 72.1421 99.5 68 99.5H48C43.8579 99.5 40.5 96.1421 40.5 92V52C40.5 47.8579 43.8579 44.5 48 44.5H61.5V49.5H48Z" fill="#D92211"/>
<path fill-rule="evenodd" clip-rule="evenodd" d="M63.5 8C63.5 3.85787 66.8579 0.5 71 0.5H91C95.1421 0.5 98.5 3.85786 98.5 8V48C98.5 52.1421 95.1421 55.5 91 55.5H71C66.8579 55.5 63.5 52.1421 63.5 48V8ZM71 5.5C69.6193 5.5 68.5 6.61929 68.5 8V48C68.5 49.3807 69.6193 50.5 71 50.5H91C92.3807 50.5 93.5 49.3807 93.5 48V8C93.5 6.61929 92.3807 5.5 91 5.5H71Z" fill="#FECC28"/>
</svg>
