<svg width="292" height="268" viewBox="0 0 292 268" fill="none" xmlns="http://www.w3.org/2000/svg">
<path d="M92.3447 185.667C103.381 181.65 106.432 172.862 101.496 159.302L86.1938 117.259L96.2882 113.585L111.591 155.628C115.203 165.554 115.403 173.902 112.19 180.673C109.276 186.802 103.714 191.36 95.5043 194.349C82.8191 198.966 72.6878 196.728 65.1105 187.635C62.4297 184.457 60.1401 180.261 58.2419 175.045L42.9395 133.002L53.0338 129.328L68.3362 171.371C73.2717 184.931 81.2745 189.697 92.3447 185.667Z" fill="#FECC28"/>
<path d="M111.833 107.927L119.101 105.281L174.661 143.761L171.46 136.695L155.239 92.1284L165.233 88.4911L190.804 158.748L183.586 161.375L137.28 129.473L127.977 122.914L131.728 131.494L147.398 174.546L137.405 178.183L111.833 107.927Z" fill="#FECC28"/>
<path d="M191.38 118.871C189.383 113.386 188.401 108.123 188.433 103.081C188.466 98.0397 189.376 93.4216 191.164 89.2268C194.946 80.458 201.749 74.2855 211.575 70.7094C221.433 67.1211 230.596 67.4825 239.062 71.7935C247.666 76.1687 253.946 83.7904 257.901 94.6587C261.857 105.527 261.933 115.368 258.13 124.183C254.425 132.848 247.626 138.981 237.734 142.581C227.875 146.17 218.708 145.848 210.233 141.617C201.607 137.287 195.323 129.705 191.38 118.871ZM201.456 115.146C204.248 122.818 208.424 128.481 213.983 132.135C220.222 136.19 227.11 136.845 234.648 134.102C242.185 131.359 247.023 126.435 249.162 119.331C251.063 113.037 250.618 106.055 247.825 98.3832C245.009 90.6442 240.837 84.9415 235.311 81.2751C229.081 77.1409 222.198 76.4454 214.661 79.1887C207.09 81.9442 202.247 86.9077 200.132 94.0792C198.222 100.452 198.663 107.474 201.456 115.146Z" fill="#FECC28"/>
<path fill-rule="evenodd" clip-rule="evenodd" d="M108.613 68.8389C83.0984 83.5699 64.5401 102.05 54 123L42.5 124.5C54.0087 101.625 76.5954 75.7774 103.613 60.1787C147.67 34.7426 206 34.4999 238.5 56.9999L223.406 60.7422C196.242 43.2264 150.634 44.5783 108.613 68.8389ZM44.622 153.116C43.0652 166.016 45.177 178.249 51.2931 188.842C61.336 206.237 80.7482 216.616 104.856 218.724C128.945 220.831 157.242 214.581 183.879 199.203C209.202 184.583 228.912 167.783 239.5 147L251 144.5C239.5 170.5 215.695 192.381 188.879 207.863C160.683 224.142 130.355 230.992 103.985 228.686C77.6341 226.382 54.7547 214.838 42.6328 193.842C35.2937 181.13 32.5 155.5 38.5 140.5L44.622 153.116Z" fill="#D92211"/>
</svg>
