<svg width="61" height="99" viewBox="0 0 61 99" fill="none" xmlns="http://www.w3.org/2000/svg">
<path fill-rule="evenodd" clip-rule="evenodd" d="M7.5 49C6.11929 49 5 50.1193 5 51.5V91.5C5 92.8807 6.11929 94 7.5 94H27.5C28.8807 94 30 92.8807 30 91.5V59H35V91.5C35 95.6421 31.6421 99 27.5 99H7.5C3.35787 99 0 95.6421 0 91.5V51.5C0 47.3579 3.35786 44 7.5 44H22V49H7.5Z" fill="white"/>
<path fill-rule="evenodd" clip-rule="evenodd" d="M26 7.5C26 3.35787 29.3579 0 33.5 0H53.5C57.6421 0 61 3.35786 61 7.5V47.5C61 51.6421 57.6421 55 53.5 55H33.5C29.3579 55 26 51.6421 26 47.5V7.5ZM33.5 5C32.1193 5 31 6.11929 31 7.5V47.5C31 48.8807 32.1193 50 33.5 50H53.5C54.8807 50 56 48.8807 56 47.5V7.5C56 6.11929 54.8807 5 53.5 5H33.5Z" fill="white"/>
</svg>
